<svg xmlns="http://www.w3.org/2000/svg" viewBox="0 0 512 512" xml:space="preserve">
  <path d="m235.6 380.1-79.2-198c-3.3-8.2-1.3-17.5 5.5-24.3.4-.4 1.5-1.3 2.8-2.2 8.7-5.7 20.4-4.5 27.7 2.8L256 222l64.3-64.3c6.7-6.7 18.4-7.9 27.1-2.2 8.6 5.7 12.1 16.9 8.3 26.5l-79.2 198c-3.5 8.5-11.5 13.9-20.5 13.9-8.4-.5-17-5.3-20.4-13.8zM75 437C-25 337-25 175 75 75s262-100 362 0 100 262.1 0 362-262 100-362 0zm328.1-33.9c81.2-81.2 81.2-212.9 0-294.2s-212.9-81.2-294.2 0-81.2 212.9 0 294.2 212.9 81.2 294.2 0z"/>
</svg>
