<?xml version="1.0" standalone="no"?>
<!DOCTYPE svg PUBLIC "-//W3C//DTD SVG 20010904//EN"
 "http://www.w3.org/TR/2001/REC-SVG-20010904/DTD/svg10.dtd">
<svg version="1.0" xmlns="http://www.w3.org/2000/svg"
 width="832.000000pt" height="832.000000pt" viewBox="0 0 832.000000 832.000000"
 preserveAspectRatio="xMidYMid meet">
<metadata>
Created by potrace 1.14, written by Peter Selinger 2001-2017
</metadata>
<g transform="translate(0.000000,832.000000) scale(0.100000,-0.100000)"
fill="#000000" stroke="none">
<path d="M4997 8274 c-1 -2 -34 -5 -72 -8 -39 -2 -70 -5 -70 -6 0 -1 -12 -4
-60 -13 -82 -15 -295 -102 -310 -127 -3 -6 -11 -8 -16 -5 -5 4 -9 2 -9 -4 0
-6 -14 -18 -31 -26 -66 -35 -200 -169 -268 -270 -56 -81 -127 -227 -122 -249
1 -4 -2 -13 -7 -20 -5 -6 -10 -34 -11 -63 -4 -98 41 -148 132 -145 48 2 75 9
170 45 37 15 67 24 67 22 0 -3 12 0 28 6 35 14 59 19 103 23 20 2 41 6 45 8
12 7 183 2 214 -6 14 -3 39 -8 55 -12 91 -19 235 -126 301 -224 45 -66 97
-176 109 -230 1 -3 6 -23 12 -45 7 -22 15 -62 19 -90 8 -59 12 -236 6 -249 -3
-5 -6 -25 -7 -45 -3 -44 -15 -123 -20 -132 -2 -3 -7 -20 -10 -37 -8 -45 -56
-195 -66 -206 -5 -6 -9 -16 -9 -24 0 -8 -16 -48 -35 -89 -19 -41 -35 -79 -35
-84 0 -5 -4 -9 -10 -9 -5 0 -10 -8 -10 -19 0 -10 -6 -24 -14 -30 -8 -7 -17
-23 -20 -36 -4 -14 -11 -25 -16 -25 -6 0 -10 -5 -10 -11 0 -17 -141 -229 -218
-329 -187 -243 -514 -581 -772 -799 -41 -35 -83 -72 -93 -82 -10 -11 -30 -27
-44 -36 -15 -10 -43 -32 -62 -49 -20 -18 -94 -78 -166 -133 -158 -123 -142
-110 -190 -145 -22 -17 -42 -32 -45 -35 -3 -4 -12 -10 -22 -16 -9 -5 -58 -40
-110 -77 -51 -37 -101 -73 -112 -80 -10 -7 -24 -17 -30 -23 -7 -5 -19 -14 -28
-20 -35 -22 -414 -275 -423 -283 -6 -5 -15 -11 -21 -13 -5 -2 -65 -39 -134
-82 -69 -43 -134 -84 -145 -90 -11 -7 -22 -15 -25 -18 -3 -4 -15 -9 -27 -13
-13 -4 -23 -12 -23 -17 0 -5 -4 -9 -10 -9 -5 0 -39 -18 -75 -40 -36 -22 -68
-40 -72 -40 -3 0 -14 -6 -22 -14 -9 -7 -36 -24 -61 -37 -25 -13 -47 -26 -50
-29 -8 -8 -43 -28 -80 -47 -19 -9 -59 -32 -88 -50 -29 -18 -55 -33 -57 -33 -3
0 -23 -11 -44 -24 -21 -14 -42 -22 -45 -19 -3 4 -6 2 -6 -4 0 -8 -41 -34 -60
-38 -3 0 -16 -8 -30 -16 -28 -18 -120 -68 -285 -154 -60 -32 -125 -66 -142
-77 -18 -11 -33 -17 -33 -14 0 4 -17 -4 -37 -17 -57 -35 -283 -148 -283 -141
0 4 -6 1 -13 -5 -8 -6 -38 -23 -68 -39 -66 -34 -75 -60 -18 -54 3 1 35 4 70 7
123 12 134 14 174 19 22 3 58 8 80 11 22 2 51 7 65 9 14 3 43 7 65 11 22 3 78
13 125 21 47 9 96 18 110 21 14 2 66 13 115 24 50 11 106 22 125 25 19 3 38 8
43 11 4 2 19 7 34 9 14 3 53 12 87 20 34 9 77 19 96 24 76 18 199 52 283 76
49 14 94 27 100 28 7 1 28 7 47 13 19 7 96 30 170 53 74 23 142 44 150 47 8 4
17 7 20 8 27 6 357 121 400 138 14 6 30 11 35 12 6 2 71 26 145 55 74 28 140
53 145 54 6 1 17 6 25 11 8 5 20 10 25 11 10 2 303 123 360 149 17 7 73 32
125 55 52 24 169 78 259 121 90 44 166 79 168 79 3 0 17 9 31 19 15 10 31 19
35 19 7 1 218 111 292 152 151 86 380 224 383 232 2 5 8 8 13 8 11 0 175 107
203 132 11 10 26 18 33 18 7 0 13 3 13 8 0 4 17 18 38 32 20 14 42 29 48 35 6
5 22 17 34 25 12 8 28 20 34 25 6 6 43 35 81 66 39 31 110 94 159 140 48 46
92 85 97 87 9 4 61 -100 74 -148 0 -3 4 -14 8 -25 19 -57 40 -265 27 -265 -3
0 -5 -28 -6 -63 -1 -149 -54 -354 -145 -564 -24 -54 -51 -110 -61 -125 -10
-14 -18 -29 -18 -33 0 -18 -183 -306 -214 -338 -9 -9 -16 -20 -16 -26 0 -6 -4
-11 -9 -11 -5 0 -12 -8 -15 -17 -3 -10 -22 -35 -41 -56 -19 -21 -35 -42 -35
-47 0 -4 -3 -10 -7 -12 -5 -1 -30 -30 -58 -63 -87 -104 -97 -116 -227 -249
-71 -72 -128 -134 -128 -138 0 -3 -4 -8 -9 -10 -5 -1 -55 -46 -112 -98 -128
-120 -112 -105 -194 -175 -38 -33 -72 -62 -75 -65 -3 -3 -45 -38 -95 -78 -49
-40 -99 -81 -110 -91 -32 -28 -314 -242 -390 -296 -38 -27 -72 -52 -75 -56 -3
-3 -15 -12 -28 -18 -13 -7 -31 -19 -40 -27 -35 -32 -111 -84 -121 -84 -6 0
-11 -3 -11 -7 0 -5 -23 -21 -50 -38 -27 -16 -50 -33 -50 -37 0 -5 -4 -8 -9 -8
-5 0 -45 -25 -89 -55 -44 -30 -85 -55 -90 -55 -6 0 -12 -4 -14 -9 -3 -8 -122
-86 -218 -142 -30 -18 -57 -36 -60 -39 -3 -4 -21 -15 -40 -26 -19 -10 -37 -21
-40 -24 -5 -5 -337 -205 -375 -226 -11 -6 -100 -56 -197 -112 -97 -56 -182
-102 -187 -102 -6 0 -11 -4 -11 -9 0 -5 -12 -14 -27 -20 -37 -14 -170 -86
-188 -101 -8 -7 -15 -9 -15 -5 0 5 -8 2 -17 -6 -26 -20 -38 -27 -322 -171
-141 -72 -261 -135 -268 -140 -7 -5 -18 -11 -25 -12 -7 -1 -61 -25 -119 -54
-122 -58 -148 -88 -74 -83 51 3 143 12 170 16 17 3 53 8 80 11 99 11 110 12
110 14 0 1 14 3 30 5 17 2 44 6 60 9 17 4 48 9 70 12 22 3 94 17 160 31 66 13
134 27 150 29 17 3 57 12 90 21 33 8 71 17 85 20 13 2 67 15 120 29 52 14 105
27 118 30 58 12 522 145 562 161 8 4 22 8 30 9 8 1 29 7 45 14 17 7 57 20 90
31 33 10 94 30 135 44 41 15 80 28 85 29 6 2 17 6 25 9 40 15 136 49 145 52 6
1 17 5 25 8 8 4 53 20 100 37 178 65 627 246 645 260 6 5 12 8 15 8 18 1 204
83 454 201 59 28 112 51 117 51 5 0 9 5 9 10 0 6 6 10 12 10 16 0 222 102 226
113 2 4 11 7 21 7 9 0 21 4 26 9 10 10 68 42 210 117 39 20 82 45 97 55 14 11
29 19 32 19 27 0 599 371 677 440 19 16 37 30 42 30 4 0 20 11 35 24 15 13 61
52 102 86 171 141 375 341 490 479 19 23 44 53 55 65 181 210 381 559 475 831
23 66 41 121 41 123 -1 1 -1 3 0 5 1 4 6 26 27 127 37 169 44 244 44 435 0 83
-3 168 -6 190 -3 22 -8 60 -11 85 -10 82 -46 240 -71 313 -13 40 -26 80 -28
89 -3 9 -12 27 -20 41 -9 13 -13 27 -9 30 3 4 1 7 -5 7 -7 0 -12 4 -12 10 0
18 -102 186 -158 259 -79 104 -219 243 -302 301 -19 13 -40 29 -47 35 -35 30
-43 35 -48 35 -3 0 -24 12 -48 27 -23 15 -78 45 -122 66 -44 22 -81 41 -83 42
-2 2 10 32 26 68 26 56 80 194 86 222 2 6 8 28 14 50 6 22 12 43 12 47 1 4 6
22 11 40 5 18 12 45 14 61 3 15 8 42 11 60 36 197 33 466 -6 667 -5 30 -12 60
-13 65 -9 28 -28 125 -25 128 2 2 -2 10 -8 18 -6 8 -17 32 -23 54 -46 152
-153 356 -254 480 -56 68 -248 255 -263 255 -2 0 -41 24 -86 54 -70 45 -168
96 -263 136 -98 42 -288 93 -425 115 -76 12 -104 15 -295 30 -139 11 -154 12
-158 9z"/>
</g>
</svg>
